/* XPM */
static char * C:\Users\yanagimura\Desktop\dir\image_for_so_long\closed_door_xpm[] = {
"100 100 10 1",
" 	c None",
".	c #1A1A1A",
"+	c #141414",
"@	c #191919",
"#	c #161616",
"$	c #151515",
"%	c #171717",
"&	c #121212",
"*	c #131313",
"=	c #111111",
"                                                                                                    ",
"                                                                                                    ",
"                                                                                                    ",
"                                                                                                    ",
"                                                                                                    ",
"                                                                                                    ",
"                                                                                                    ",
"                      .++++++++++++++++++++++++++++++++++++++++++++++++++@                          ",
"                     +#$+++++++++++++++++++++++++++++++++++++++++++++++++%&                         ",
"                     #%++++++++++++++++++++++++++++++++++++++++++++++++++$@                         ",
"                     #$$+++#$$$$$$$$$$$$$$$$$$$$$$$$$$$$$$$$$$$$$$$$$#*++##                         ",
"                     #+$++$$$######################################$#+$++$$                         ",
"                     #+$++                                            +++$$                         ",
"                     #+$++                                            %++$$                         ",
"                     #+$++                                            %++$$                         ",
"                     #+$++   $$$$$$$$$$$$$$$$$$$$$$$$$$$$$$$$$$$$$$   %++$$                         ",
"                     #+$++   $$$$$$$$$$$$$$$$$$$$$$$$$$$$$$$$$$$$$$   %++$$                         ",
"                     #+$++   $$$$$$$$$$$$$$$$$$$$$$$$$$$$$$$$$$$$$$   %++$$                         ",
"                     #+$++   $$$$$$$$$$$$$$$$$$$$$$$$$$$$$$$$$$$$$$   %++$$                         ",
"                     #+$++   $$$$$$$$$$$$$$$$$$$$$$$$$$$$$$$$$$$$$$   %++$$                         ",
"                     #+$++   $$$$$$$$$$$$$$$$$$$$$$$$$$$$$$$$$$$$$$   %++$$                         ",
"                     #+$++   $$$$$$$$$$$$$$$$$$$$$$$$$$$$$$$$$$$$$$   %++$$                         ",
"                     #+$++   $$$$$$$$$$$$$$$$$$$$$$$$$$$$$$$$$$$$$$   %++$$                         ",
"                     #+$++   $$$$$$$$$$$$$$$$$$$$$$$$$$$$$$$$$$$$$$   %++$$                         ",
"                     #+$++   $$$$$$$$$$$$$$$$$$$$$$$$$$$$$$$$$$$$$$   %++$$                         ",
"                     #+$++   $$$$$$$$$$$$$$$$$$$$$$$$$$$$$$$$$$$$$$   %++$$                         ",
"                     #+$++   $$$$$$$$$$$$$$$$$$$$$$$$$$$$$$$$$$$$$$   %++$$                         ",
"                     #+$++   $$$$$$$$$$$$$$$$$$$$$$$$$$$$$$$$$$$$$$   %++$$                         ",
"                     #+$++   $$$$$$$$$$$$$$$$$$$$$$$$$$$$$$$$$$$$$$   %++$$                         ",
"                     #+$++   $$$$$$$$$$$$$$$$$$$$$$$$$$$$$$$$$$$$$$   %++$$                         ",
"                     #+$++   $$$$$$$$$$$$$$$$$$$$$$$$$$$$$$$$$$$$$$   %++$$                         ",
"                     #+$++   $$$$$$$$$$$$$$$$$$$$$$$$$$$$$$$$$$$$$$   %++$$                         ",
"                     #+$++   $$$$$$$$$$$$$$$$$$$$$$$$$$$$$$$$$$$$$$   %++$$                         ",
"                     #+$++   $$$$$$$$$$$$$$$$$$$$$$$$$$$$$$$$$$$$$$   %++$$                         ",
"                     #+$++   $$$$$$$$$$$$$$$$$$$$$$$$$$$$$$$$$$$$$$   %++$$                         ",
"                     #+$++   $$$$$$$$$$$$$$$$$$$$$$$$$$$$$$$$$$$$$$   %++$$                         ",
"                     #+$++   $$$$$$$$$$$$$$$$$$$$$$$$$$$$$$$$$$$$$$   %++$$                         ",
"                     #+$++   $$$$$$$$$$$$$$$$$$$$$$$$$$$$$$$$$$$$$$   %++$$                         ",
"                     #+$++   $$$$$$$$$$$$$$$$$$$$$$$$$$$$$$$$$$$$$$   %++$$                         ",
"                     #+$++   $$$$$$$$$$$$$$$$$$$$$$$$$$$$$$$$$$$$$$   %++$$                         ",
"                     #+$++   $$$$$$$$$$$$$$$$$$$$$$$$$$$$$$$$$$$$$$   %++$$                         ",
"                     #+$++   $$$$$$$$$$$$$$$$$$$$$$$$$$$$$$$$$$$$$$   %++$$                         ",
"                     #+$++   $$$$$$$$$$$$$$$$$$$$$$$$$$$$$$$$$$$$$$   %++$$                         ",
"                     #+$++   $$$$$$$$$$$$$$$$$$$$$$$$$$$$$$$$$$$$$$   %++$$                         ",
"                     #+$++   $$$$$$$$$$$$$$$$$$$$$$$$$$$$$$$$$$$$$$   %++$$                         ",
"                     #+$++   $$$$$$$$$$$$$$$$$$$$$$$$$$$$$$$$$$$$$$   %++$$                         ",
"                     #+$++   $$$$$$$$$$$$$$$$$$$$$$$$$$$$$$$$$$$$$$   %++$$                         ",
"                     #+$++   $$$$$$$$$$$$$$$$$$$$$$$$$$$$$$$$$$$$$$   %++$$                         ",
"                     #+$++   $$$$$$$$$$$$$$$$$$$$$$$$$$$$$$$$$$$$$$   %++$$                         ",
"                     #+$++   $$$$$$$$$$$$$$$$$$$$$$$$$$$$$$$$$$$$$$   %++$$                         ",
"                     #+$++   $$$  $$$$$$$$$$$$$$$$$$$$$$$$$$$$$$$$$   %++$$                         ",
"                     #+$++   $$    $$$$$$$$$$$$$$$$$$$$$$$$$$$$$$$$   %++$$                         ",
"                     #+$++   $      $$$$$$$$$$$$$$$$$$$$$$$$$$$$$$$   %++$$                         ",
"                     #+$++   $      $$$$$$$$$$$$$$$$$$$$$$$$$$$$$$$   %++$$                         ",
"                     #+$++   $$    $$$$$$$$$$$$$$$$$$$$$$$$$$$$$$$$   %++$$                         ",
"                     #+$++   $$$  $$$$$$$$$$$$$$$$$$$$$$$$$$$$$$$$$   %++$$                         ",
"                     #+$++   $$$$$$$$$$$$$$$$$$$$$$$$$$$$$$$$$$$$$$   %++$$                         ",
"                     #+$++   $$$$$$$$$$$$$$$$$$$$$$$$$$$$$$$$$$$$$$   %++$$                         ",
"                     #+$++   $$$$$$$$$$$$$$$$$$$$$$$$$$$$$$$$$$$$$$   %++$$                         ",
"                     #+$++   $$$$$$$$$$$$$$$$$$$$$$$$$$$$$$$$$$$$$$   %++$$                         ",
"                     #+$++   $$$$$$$$$$$$$$$$$$$$$$$$$$$$$$$$$$$$$$   %++$$                         ",
"                     #+$++   $$$$$$$$$$$$$$$$$$$$$$$$$$$$$$$$$$$$$$   %++$$                         ",
"                     #+$++   $$$$$$$$$$$$$$$$$$$$$$$$$$$$$$$$$$$$$$   %++$$                         ",
"                     #+$++   $$$$$$$$$$$$$$$$$$$$$$$$$$$$$$$$$$$$$$   %++$$                         ",
"                     #+$++   $$$$$$$$$$$$$$$$$$$$$$$$$$$$$$$$$$$$$$   %++$$                         ",
"                     #+$++   $$$$$$$$$$$$$$$$$$$$$$$$$$$$$$$$$$$$$$   %++$$                         ",
"                     #+$++   $$$$$$$$$$$$$$$$$$$$$$$$$$$$$$$$$$$$$$   %++$$                         ",
"                     #+$++   $$$$$$$$$$$$$$$$$$$$$$$$$$$$$$$$$$$$$$   %++$$                         ",
"                     #+$++   $$$$$$$$$$$$$$$$$$$$$$$$$$$$$$$$$$$$$$   %++$$                         ",
"                     #+$++   $$$$$$$$$$$$$$$$$$$$$$$$$$$$$$$$$$$$$$   %++$$                         ",
"                     #+$++   $$$$$$$$$$$$$$$$$$$$$$$$$$$$$$$$$$$$$$   %++$$                         ",
"                     #+$++   $$$$$$$$$$$$$$$$$$$$$$$$$$$$$$$$$$$$$$   %++$$                         ",
"                     #+$++   $$$$$$$$$$$$$$$$$$$$$$$$$$$$$$$$$$$$$$   %++$$                         ",
"                     #+$++   $$$$$$$$$$$$$$$$$$$$$$$$$$$$$$$$$$$$$$   %++$$                         ",
"                     #+$++   $$$$$$$$$$$$$$$$$$$$$$$$$$$$$$$$$$$$$$   %++$$                         ",
"                     #+$++   $$$$$$$$$$$$$$$$$$$$$$$$$$$$$$$$$$$$$$   %++$$                         ",
"                     #+$++   $$$$$$$$$$$$$$$$$$$$$$$$$$$$$$$$$$$$$$   %++$$                         ",
"                     #+$++   $$$$$$$$$$$$$$$$$$$$$$$$$$$$$$$$$$$$$$   %++$$                         ",
"                     #+$++   $$$$$$$$$$$$$$$$$$$$$$$$$$$$$$$$$$$$$$   %++$$                         ",
"                     #+$++   $$$$$$$$$$$$$$$$$$$$$$$$$$$$$$$$$$$$$$   %++$$                         ",
"                     #+$++   $$$$$$$$$$$$$$$$$$$$$$$$$$$$$$$$$$$$$$   %++$$                         ",
"                     #+$++   $$$$$$$$$$$$$$$$$$$$$$$$$$$$$$$$$$$$$$   %++$$                         ",
"                     #+$++   $$$$$$$$$$$$$$$$$$$$$$$$$$$$$$$$$$$$$$   %++$$                         ",
"                     #+$++   $$$$$$$$$$$$$$$$$$$$$$$$$$$$$$$$$$$$$$   %++$$                         ",
"                     #+$++   $$$$$$$$$$$$$$$$$$$$$$$$$$$$$$$$$$$$$$   %++$$                         ",
"                     #+$++   $$$$$$$$$$$$$$$$$$$$$$$$$$$$$$$$$$$$$$   %++$$                         ",
"                     #+$++   $$$$$$$$$$$$$$$$$$$$$$$$$$$$$$$$$$$$$$   %++$$                         ",
"                     #+$++   $$$$$$$$$$$$$$$$$$$$$$$$$$$$$$$$$$$$$$   %++$$                         ",
"                     #+$++   $$$$$$$$$$$$$$$$$$$$$$$$$$$$$$$$$$$$$$   %++$$                         ",
"                     #+$++   $$$$$$$$$$$$$$$$$$$$$$$$$$$$$$$$$$$$$$   %++$$                         ",
"                     #+$++   $$$$$$$$$$$$$$$$$$$$$$$$$$$$$$$$$$$$$$   %++$$                         ",
"                     #+$++   $$$$$$$$$$$$$$$$$$$$$$$$$$$$$$$$$$$$$$   %++$$                         ",
"                     $#++#                                            $$$+#                         ",
"                     %+#+$                                            #$$%%                         ",
"                     +%%%%                                            +$$%=                         ",
"                                                                                                    ",
"                                                                                                    ",
"                                                                                                    ",
"                                                                                                    ",
"                                                                                                    "};
