/* XPM */
static char *eb44d494362a4d12ffeaa8c14540ae1b7YtOJ7z69kAIu8zo[] = {
/* columns rows colors chars-per-pixel */
"100 100 11 1 ",
"  c None",
". c #111111",
"X c gray7",
"o c #131313",
"O c gray8",
"+ c #151515",
"@ c #161616",
"# c gray9",
"$ c #181818",
"% c #191919",
"& c gray10",
/* pixels */
"                                                                                                    ",
"                                                                                                    ",
"                                                                                                    ",
"                                                                                                    ",
"                                                                                                    ",
"                                                                                                    ",
"                                                                                                    ",
"                      &o@o@o@o@oo@oo@oo@oo@oo@oo@o@o@o@oo@oo@oo@oo@oo@@o@&                          ",
"                     @@@ooo@o@@ooo@ooo@@ooo@oo@@ooo@o@@oo@oo@@ooo@ooo@@oo@o                         ",
"                     @@o@@oooooo@o@o@oooo@oo@ooo@@oooooooo@oooo@ooo@ooooo@&                         ",
"                     @@@ooo@@@@@@@@o@o@@o@@@@o@@@o@o@@@@@@@o@o@@@@@@@@o@@@@                         ",
"                     @o@o@@o@@@@@@@@@@@@@@@@@@@@@@@@@@@@@@@@@@@@@@@@@o@oo@@                         ",
"                     @oooo                                            ooo@@                         ",
"                     @@@@o                                            @@o@@                         ",
"                     @o@oo                                            @@o@@                         ",
"                     @o@@@          @@@@@@@@@@@@@@@@@@@@@@@@@@@@@@@   @oo@@                         ",
"                     @@@@o          @oo@o@@o@ooooo@o@ooo@oo@ooo@o@@   @@o@@                         ",
"                     @oooo          @@oooooooo@@@o@ooo@o@oo@o@ooo@o   @@o@@                         ",
"                     @@@o@          oo@o@oo@o@ooo@ooo@o@oooo@o@oo@@   @oo@@                         ",
"                     @ooo@          @@oo@oo@oo@oooo@o@ooo@@ooo@oo@@   &oo@@                         ",
"                     @@@@o          @o@@ooo@o@oo@oo@oo@oo@@ooo@oo@@   @@o@@                         ",
"                     @oooo          ooooo@ooo@o@@oo@o@oooooo@o@oo@o   @oo@@                         ",
"                     @@@o@          o@o@@o@ooo@ooooooo@@@oo@o@ooo@@   @@oo@                         ",
"                     @ooo@          o@oooo@o@oooo@@o@ooo@oo@ooo@o@@   @o@@@                         ",
"                     @@@o@          @@oo@ooo@oo@ooo@o@@ooo@ooo@oo@@   @@oo@                         ",
"                     @o@oo          ooo@oo@o@oo@@@ooooooo@oo@o@oo@o   @@@@@                         ",
"                     @o@oo          ooo@o@o@oooooo@o@oo@oo@@o@ooo@@   @oo@@                         ",
"                     @oo@@          @@ooo@ooo@@oo@oo@oo@@oooooo@o@@   &oo@@                         ",
"                     @@@oo          oo@oo@ooo@@ooo@o@oooooo@@@ooo@@   @oo@@                         ",
"                     @ooo@          @o@oo@o@oooo@o@ooo@o@@ooooo@o@@   @@o@@                         ",
"                     @@@oo          @@oooo@o@oo@o@ooo@o@oo@oooo@o@@   @@o@@                         ",
"                     @o@@o          ooo@@ooo@oo@ooo@o@ooo@oo@@ooo@@   @oo@@                         ",
"                     @o@oo          @@oooo@@oo@ooo@o@ooo@oo@ooo@o@@   @@o@@                         ",
"                     @oo@@          ooo@@oooo@oo@o@ooo@o@oo@o@ooo@o   @@o@@                         ",
"                     @@@oo          ooo@@ooooo@@o@ooo@o@oooo@o@oo@@   @oo@@                         ",
"                     @ooo@          @@oooo@@@oooooo@o@ooo@@ooo@oo@@   &oo@@                         ",
"                     @@@oo          ooo@@oooooo@@oo@oo@oo@@ooo@oo@@   @@o@@                         ",
"                     @o@@o          o@oooo@o@@oo@oo@o@oooooo@o@oo@o   @oo@@                         ",
"                     @oooo          @o@oo@o@oo@ooooooo@@@oo@o@ooo@@   @@oo@                         ",
"                     @@@@@          oo@oo@ooo@ooo@@o@ooo@oo@ooo@o@@   @o@@@                         ",
"                     @@@@o          @ooo@@oooo@@ooo@o@@ooo@ooo@oo@@   @@oo@                         ",
"                     @oooo          oo@oooo@@ooo@@ooooooo@oo@o@oo@o   @@@@@                         ",
"                     @@@o@          o@@@@@o@ooo@oo@o@oo@oo@@o@ooo@@   @oo@@                         ",
"                     @ooo@          o@o@@o@o@@ooo@oo@oo@@oooooo@o@@   &oo@@                         ",
"                     @@@@o          @oo   o@@o@ooo@o@oooooo@@@ooo@@   @oo@@                         ",
"                     @oooo          @o@    @o@oo@o@ooo@o@@ooooo@o@@   @@o@@                         ",
"                     @@@o@          ooo    @oo@@o@ooo@o@oo@oooo@o@@   @@o@@                         ",
"                     @ooo@          o@@    @@oooooo@o@ooo@oo@@ooo@@   @oo@@                         ",
"                     @@@o@          @@@   &@@@@o@@oooo@@oo@ooo@oo@@   @@o@@                         ",
"                     @oooo          ooo&&&o@ooooooo@@oooo@oo@o@oo@o   @@o@@                         ",
"                     @@@oo          @ooo@o@oooo@ooo@@ooooo@@o@ooo@@   @oo@@                         ",
"                     @o@@@          @o@ooo@oo@o@@@oooo@@@oooooo@o@@   &oo@@                         ",
"                     @o@oo          @ooo@@oo@ooooo@oo@ooooo@@@ooo@@   @@o@@                         ",
"                     @ooo@          @oo@ooo@oo@oo@oooo@o@@ooooo@o@o   @oo@@                         ",
"                     @@@oo          @o@oooo@o@o@oo@@@@oooo@oooo@o@@   @@oo@                         ",
"                     @oo@o          @ooo@@ooo@oo@oooooo@o@oo@@ooo@@   @o@@@                         ",
"                     @@@oo          @@oooo@@oo@o@oooooo@o@oo@@ooo@@   @@oo@                         ",
"                     @oo@@          ooo@@oooo@oooo@@@@oooo@oooo@o@o   @@@@@                         ",
"                     @@@oo          @oo@@ooooo@@o@oooo@o@@ooooo@o@@   @oo@@                         ",
"                     @o@o@          @@oooo@@@ooooo@oo@ooooo@@@ooo@@   &oo@@                         ",
"                     @oooo          oo@o@oooooo@@@oooo@@@oooooo@o@@   @oo@@                         ",
"                     @@@@o          @o@ooo@o@@ooooo@@ooooo@@o@ooo@@   @@o@@                         ",
"                     @o@oo          @@ooo@o@oo@oooo@@oooo@oo@o@oo@@   @@o@@                         ",
"                     @o@@@          ooo@o@ooo@oo@@oooo@@oo@ooo@oo@@   @oo@@                         ",
"                     @@@oo          @ooo@@oooo@@oo@ooo@ooo@@oo@oo@@   @@o@@                         ",
"                     @o@@o          @@@oooo@@oooo@oo@o@o@oooo@ooo@@   @oo@o                         ",
"                     @o@oo          o@ooooo@@ooooo@@o@oo@ooooo@@oo@   @@o@@                         ",
"                     @ooo@          ooo@@@oooo@@@oooooo@oo@@@ooo@@@   @@o@@                         ",
"                     @@@oo          @ooooo@oo@ooooo@@@oo@oooooo@oo@   @@o@@                         ",
"                     @oo@@          @o@@o@oooo@o@@ooooo@oo@o@@oo@@@   @oo@o                         ",
"                     @@@oo          oooooo@@@@oooo@oooo@o@o@oo@oo@@   &oo@@                         ",
"                     @o@o@          @@@o@oooooo@o@oo@@ooo@ooo@ooo@@   @oo@@                         ",
"                     @o@o@          @o@o@oooooo@oo@o@ooo@@oooo@@o@@   @o@@o                         ",
"                     @oooo          @@oooo@@@@oo@o@ooo@oooo@@oooo@@   &oo@@                         ",
"                     @@@@@          oo@@o@oooo@oo@ooo@o@ooo@@oooo@@   @oo@@                         ",
"                     @oooo          @ooooo@oo@ooooo@o@oo@@oooo@@o@@   &oo@@                         ",
"                     @@@oo          @oo@@@oooo@@@oo@oo@ooo@oo@ooo@@   @@o@@                         ",
"                     @o@@@          @@ooooo@@ooo@oo@o@ooo@oooo@oo@@   @@o@@                         ",
"                     @o@oo          oo@oooo@@ooooooooo@@oo@@@@oooo@   @ooo@                         ",
"                     @o@o@          @@oo@@oooo@@o@@o@ooo@oooooo@@@@   &o@@@                         ",
"                     @@@oo          @oo@ooo@@ooo@oooooo@@oooooo@oo@   @ooo@                         ",
"                     @o@@o          @@o@o@oooo@ooo@@@@oooo@@@@oo@@@   &o@@@                         ",
"                     @o@oo            @@o@@@@oooo@oooo@oo@oooo@oo@@   @@o@@                         ",
"                     @ooo@               @@@@o@@oo@oo@oooo@oo@ooo@@   @@o@@                         ",
"                     @@@oo                 @@@@@@@o@oo@@@@oooo@@o@@   @oo@@                         ",
"                     @oo@@                     @@@@@@oooooo@@oooo@@   &oo@@                         ",
"                     @@@oo                       &oo@o@o@oo@@oooo@@   @@o@@                         ",
"                     @o@o@                           o@o@@o@oo@@o@@   @oo@@                         ",
"                     @ooo@                              @@oo@oooo@@   @@o@@                         ",
"                     @@@oo                                 @@o@oo@@   @oo@@                         ",
"                     @o@@@                                    &@@@@   @@o@@                         ",
"                     @o@oo                                       @@   @@o@@                         ",
"                     @@@o@                                            @@@o@                         ",
"                     @o@@@                                            @@@@@                         ",
"                     @&@@@                                            o@@@o                         ",
"                                                                                                    ",
"                                                                                                    ",
"                                                                                                    ",
"                                                                                                    ",
"                                                                                                    "
};
